<?xml version="1.0" standalone="no"?>
<!DOCTYPE svg PUBLIC "-//W3C//DTD SVG 20010904//EN"
 "http://www.w3.org/TR/2001/REC-SVG-20010904/DTD/svg10.dtd">
<svg version="1.0" xmlns="http://www.w3.org/2000/svg"
 width="1196.000000pt" height="1196.000000pt" viewBox="0 0 1196.000000 1196.000000"
 preserveAspectRatio="xMidYMid meet">
<metadata>
Created by potrace 1.11, written by Peter Selinger 2001-2013
</metadata>
<g transform="translate(0.000000,1196.000000) scale(0.100000,-0.100000)"
fill="#000000" stroke="none">
<path d="M5925 10882 c-3 -3 -16 -7 -28 -9 -12 -2 -23 -8 -25 -13 -2 -6 -10
-10 -17 -10 -22 0 -91 -72 -115 -120 -82 -162 22 -368 199 -396 l40 -6 -2
-221 -2 -221 -85 -2 c-127 -3 -296 -17 -365 -30 -10 -2 -35 -6 -55 -9 -54 -8
-51 -7 -230 -50 -8 -2 -36 -10 -62 -18 -26 -8 -49 -12 -52 -9 -4 3 -6 1 -6 -5
0 -5 -6 -10 -12 -10 -21 0 -231 -85 -250 -100 -9 -8 -22 -15 -30 -17 -26 -4
-216 -120 -283 -173 -88 -70 -116 -95 -190 -169 -95 -96 -120 -124 -165 -184
-19 -25 -38 -46 -42 -48 -5 -2 -8 -10 -8 -17 0 -7 -4 -15 -9 -17 -20 -7 -174
-259 -228 -373 -15 -33 -32 -63 -38 -67 -5 -4 -6 -8 -1 -8 5 0 3 -6 -3 -13
-21 -26 -158 -379 -176 -457 -21 -86 -27 -95 -82 -129 -96 -58 -200 -151 -320
-285 -24 -26 -43 -50 -43 -52 0 -3 -7 -12 -15 -21 -67 -67 -195 -308 -211
-399 -3 -15 -7 -30 -9 -33 -2 -4 -57 -6 -122 -6 -111 0 -118 1 -119 20 -7 88
-49 191 -102 249 -49 52 -121 68 -180 40 -39 -18 -102 -81 -102 -101 0 -7 -4
-13 -9 -13 -11 0 -54 -147 -47 -159 4 -5 3 -12 -1 -14 -9 -6 -8 -71 2 -156 8
-73 55 -171 102 -216 40 -39 109 -70 119 -54 3 5 11 9 17 8 32 -4 50 4 86 37
34 30 82 107 83 131 0 4 4 13 9 20 6 6 12 35 15 64 3 30 7 56 10 59 7 6 224 7
225 0 1 -3 2 -16 4 -30 11 -87 26 -147 52 -207 9 -21 16 -41 15 -45 -1 -5 3
-8 8 -8 5 0 9 -3 8 -7 -1 -5 6 -21 16 -38 118 -187 238 -306 404 -401 17 -10
32 -21 33 -24 0 -3 3 -14 5 -25 7 -31 16 -87 18 -115 l2 -25 2422 -2 c2275 -2
2422 -1 2423 15 0 9 2 27 5 40 2 12 6 32 8 45 3 12 5 31 5 42 1 13 17 28 49
45 26 13 49 27 52 30 3 3 25 19 50 35 64 43 190 169 245 245 85 117 150 272
159 380 2 25 4 47 5 50 1 7 211 7 212 0 0 -3 2 -14 5 -25 2 -11 6 -31 8 -45
15 -94 85 -203 150 -234 88 -42 169 -4 231 109 33 59 40 81 51 160 33 223 -69
435 -213 441 -44 2 -103 -19 -103 -37 0 -5 -6 -9 -12 -9 -20 0 -82 -108 -94
-163 -3 -12 -8 -33 -11 -47 -3 -14 -6 -34 -7 -45 -1 -19 -8 -20 -113 -20
l-113 -1 -11 34 c-6 18 -12 39 -13 45 -17 80 -155 316 -246 421 -64 74 -191
196 -248 239 -31 23 -59 44 -62 47 -3 3 -26 18 -52 33 -27 15 -48 33 -48 40 0
13 -75 250 -89 282 -5 11 -23 56 -41 100 -18 44 -50 116 -71 160 -22 44 -39
86 -39 93 0 6 -3 12 -8 12 -4 0 -15 17 -25 38 -10 20 -28 53 -40 73 -12 20
-37 62 -55 93 -19 31 -39 62 -45 69 -7 7 -18 22 -25 32 -124 193 -324 392
-533 533 -113 76 -235 137 -424 213 -82 32 -366 104 -412 103 -13 0 -23 2 -23
5 0 3 -10 6 -22 7 -13 1 -53 4 -90 8 -96 10 -172 16 -253 21 -38 2 -77 4 -85
4 -13 1 -19 37 -10 61 1 3 1 10 0 15 -4 21 -3 122 2 131 2 5 3 20 1 34 -6 56
-8 160 -1 160 3 0 4 8 1 19 -4 15 3 19 39 25 58 9 120 47 161 99 46 58 61 99
61 176 1 96 -35 163 -125 236 -13 10 -24 18 -24 16 0 -1 -13 3 -30 9 -33 13
-150 22 -160 12z"/>
<path d="M3547 6064 c-3 -3 -60 -6 -127 -5 l-122 0 6 -42 c3 -23 9 -62 12 -87
15 -104 23 -95 -117 -139 -53 -16 -124 -42 -158 -57 -57 -26 -66 -35 -63 -74
5 -74 14 -165 17 -170 2 -4 7 -35 10 -71 3 -35 7 -77 10 -94 2 -16 6 -59 10
-95 4 -36 8 -76 10 -90 5 -40 15 -120 21 -180 3 -30 7 -71 10 -90 3 -19 6 -53
9 -74 2 -22 6 -60 9 -85 9 -64 16 -127 22 -186 7 -69 12 -113 18 -160 3 -22 8
-65 11 -95 2 -30 7 -73 10 -95 8 -50 14 -106 19 -170 3 -27 7 -63 9 -80 7 -42
19 -143 23 -185 1 -19 5 -53 8 -75 3 -22 8 -62 10 -90 16 -158 18 -165 40
-166 12 -1 104 -2 205 -3 206 -1 184 7 195 -76 3 -19 5 -35 6 -35 1 0 3 -20 5
-45 3 -25 7 -63 11 -85 3 -22 7 -53 9 -70 2 -16 6 -46 8 -65 3 -19 10 -73 16
-120 6 -47 13 -96 16 -110 4 -24 7 -48 20 -160 3 -25 7 -56 9 -70 12 -93 17
-130 21 -165 2 -22 6 -51 9 -65 2 -14 7 -49 10 -78 3 -28 8 -67 11 -85 5 -30
9 -60 21 -167 2 -25 6 -54 8 -65 3 -11 5 -22 5 -25 2 -10 4290 -5 4300 5 5 6
12 37 15 70 4 33 9 74 11 90 5 31 11 72 20 160 4 28 10 82 16 120 12 89 19
150 25 200 2 22 6 54 9 70 2 17 7 55 10 85 3 30 8 67 11 82 3 14 7 43 9 65 10
83 22 187 31 253 3 25 7 61 9 80 2 19 6 51 10 70 4 19 8 54 10 78 1 24 6 46
10 50 3 4 91 7 195 7 104 0 191 3 194 5 6 6 16 82 31 225 3 28 7 66 10 85 2
19 6 55 8 80 3 25 9 72 13 105 4 33 8 74 10 90 1 17 3 30 4 30 1 0 3 18 5 40
3 41 13 140 19 185 13 95 25 195 30 260 2 25 7 63 10 85 3 22 8 65 12 95 3 30
7 66 9 80 1 14 5 52 9 85 3 33 9 76 12 96 3 19 7 57 9 85 2 27 4 49 5 49 1 0
3 16 5 35 2 19 6 55 9 80 3 25 8 70 11 100 6 53 12 95 15 95 0 0 3 25 5 55 2
30 7 82 11 115 4 33 7 78 8 100 1 38 -2 41 -44 61 -25 12 -103 41 -173 64
l-129 43 6 57 c7 71 16 131 21 147 6 18 -26 32 -50 23 -12 -5 -28 -5 -35 0 -7
5 -23 4 -36 0 -12 -5 -24 -7 -27 -4 -2 3 -100 4 -216 4 -116 -1 -219 -1 -228
0 -10 0 -27 0 -38 0 -28 -2 -17 -2 -255 -1 -118 0 -222 0 -230 -1 -8 0 -44 0
-80 1 -36 0 -72 0 -80 0 -8 -1 -44 -1 -80 0 -36 0 -72 0 -80 0 -8 -1 -44 -1
-80 0 -36 0 -72 0 -80 0 -8 0 -33 0 -55 0 -60 1 -78 1 -100 1 -11 -1 -24 -1
-30 -1 -30 -1 -393 0 -410 1 -11 0 -29 0 -40 0 -28 -2 -21 -2 -230 -1 -104 0
-235 0 -290 0 -55 0 -104 0 -110 1 -5 1 -14 1 -20 0 -12 -2 -686 -2 -700 1 -5
1 -14 0 -20 -1 -12 -2 -206 -2 -220 0 -5 1 -14 2 -20 0 -11 -2 -206 -2 -220 1
-5 1 -14 0 -20 -1 -12 -2 -206 -2 -220 0 -5 1 -14 2 -20 0 -11 -2 -206 -2
-220 1 -5 1 -14 0 -20 -1 -12 -2 -206 -2 -220 0 -5 1 -14 1 -20 0 -32 -7 -56
-6 -61 2 -3 4 -10 5 -16 2 -13 -8 -212 -9 -225 -1 -6 4 -13 4 -16 1z"/>
<path d="M4914 1772 l-41 -3 9 -55 c19 -122 68 -213 173 -317 105 -105 285
-207 445 -251 36 -10 72 -21 80 -24 8 -3 22 -6 30 -8 8 -1 44 -7 80 -14 104
-19 156 -23 310 -23 182 1 242 8 418 47 121 27 326 121 426 195 150 112 249
260 262 395 2 21 7 42 10 47 3 5 -16 9 -43 10 -190 2 -2126 3 -2159 1z"/>
</g>
</svg>
